HIERARCHY
ROOT Hips
{
	OFFSET 0.265475 87.646278 5.308476
	CHANNELS 6 Xposition Yposition Zposition Zrotation Yrotation Xrotation 
	JOINT Spine
	{
		OFFSET -0.000000 8.814246 -2.080107
		CHANNELS 3 Zrotation Yrotation Xrotation
		JOINT Spine1
		{
			OFFSET -0.000000 8.844141 -0.000000
			CHANNELS 3 Zrotation Yrotation Xrotation
			JOINT Spine2
			{
				OFFSET -0.000000 11.682268 -0.000000
				CHANNELS 3 Zrotation Yrotation Xrotation
				JOINT Spine3
				{
					OFFSET 0.000000 11.746700 0.000000
					CHANNELS 3 Zrotation Yrotation Xrotation
					JOINT Neck
					{
						OFFSET -0.000000 17.658264 -0.000000
						CHANNELS 3 Zrotation Yrotation Xrotation
						JOINT Neck1
						{
							OFFSET 0.000000 5.101515 0.000000
							CHANNELS 3 Zrotation Yrotation Xrotation
							JOINT Head
							{
								OFFSET -0.000000 5.101515 -0.000000
								CHANNELS 3 Zrotation Yrotation Xrotation
								JOINT HeadEnd
								{
									OFFSET 0.000000 11.655085 0.000000
									CHANNELS 3 Zrotation Yrotation Xrotation
									End Site
									{
										OFFSET 0.000000 0.000000 0.000000
									}
								}
							}
						}
					}
					JOINT RightShoulder
					{
						OFFSET -2.625389 11.175210 -0.000000
						CHANNELS 3 Zrotation Yrotation Xrotation
						JOINT RightArm
						{
							OFFSET 0.000000 10.434715 -0.000000
							CHANNELS 3 Zrotation Yrotation Xrotation
							JOINT RightForeArm
							{
								OFFSET 0.000000 29.628420 -0.000000
								CHANNELS 3 Zrotation Yrotation Xrotation
								JOINT RightHand
								{
									OFFSET 0.000000 22.857611 -0.000000
									CHANNELS 3 Zrotation Yrotation Xrotation
									JOINT RightHandThumb1
									{
										OFFSET -2.867323 3.959563 2.944291
										CHANNELS 3 Zrotation Yrotation Xrotation
										JOINT RightHandThumb2
										{
											OFFSET -0.000000 3.350399 0.000000
											CHANNELS 3 Zrotation Yrotation Xrotation
											JOINT RightHandThumb3
											{
												OFFSET 0.000000 3.756509 0.000000
												CHANNELS 3 Zrotation Yrotation Xrotation
												JOINT RightHandThumb4
												{
													OFFSET -0.000000 3.147345 0.000000
													CHANNELS 3 Zrotation Yrotation Xrotation
													End Site
													{
														OFFSET 0.000000 0.000000 0.000000
													}
												}
											}
										}
									}
									JOINT RightHandIndex1
									{
										OFFSET -0.086752 10.030893 2.345280
										CHANNELS 3 Zrotation Yrotation Xrotation
										JOINT RightHandIndex2
										{
											OFFSET 0.000000 4.061090 -0.000000
											CHANNELS 3 Zrotation Yrotation Xrotation
											JOINT RightHandIndex3
											{
												OFFSET -0.000000 3.248873 0.000000
												CHANNELS 3 Zrotation Yrotation Xrotation
												JOINT RightHandIndex4
												{
													OFFSET 0.000000 2.639709 -0.000000
													CHANNELS 3 Zrotation Yrotation Xrotation
													End Site
													{
														OFFSET 0.000000 0.000000 0.000000
													}
												}
											}
										}
									}
									JOINT RightHandMiddle1
									{
										OFFSET 0.104102 9.502952 0.006768
										CHANNELS 3 Zrotation Yrotation Xrotation
										JOINT RightHandMiddle2
										{
											OFFSET 0.000000 4.568727 -0.000000
											CHANNELS 3 Zrotation Yrotation Xrotation
											JOINT RightHandMiddle3
											{
												OFFSET -0.000000 3.654981 0.000000
												CHANNELS 3 Zrotation Yrotation Xrotation
												JOINT RightHandMiddle4
												{
													OFFSET -0.000000 2.741236 0.000000
													CHANNELS 3 Zrotation Yrotation Xrotation
													End Site
													{
														OFFSET 0.000000 0.000000 0.000000
													}
												}
											}
										}
									}
									JOINT RightHandRing1
									{
										OFFSET 0.086752 8.921708 -2.267442
										CHANNELS 3 Zrotation Yrotation Xrotation
										JOINT RightHandRing2
										{
											OFFSET -0.000000 4.061090 0.000000
											CHANNELS 3 Zrotation Yrotation Xrotation
											JOINT RightHandRing3
											{
												OFFSET 0.000000 3.654981 -0.000000
												CHANNELS 3 Zrotation Yrotation Xrotation
												JOINT RightHandRing4
												{
													OFFSET 0.000000 2.741236 -0.000000
													CHANNELS 3 Zrotation Yrotation Xrotation
													End Site
													{
														OFFSET 0.000000 0.000000 0.000000
													}
												}
											}
										}
									}
									JOINT RightHandPinky1
									{
										OFFSET -0.173504 7.976997 -4.467199
										CHANNELS 3 Zrotation Yrotation Xrotation
										JOINT RightHandPinky2
										{
											OFFSET -0.000000 3.350399 -0.000000
											CHANNELS 3 Zrotation Yrotation Xrotation
											JOINT RightHandPinky3
											{
												OFFSET -0.000000 2.842763 0.000000
												CHANNELS 3 Zrotation Yrotation Xrotation
												JOINT RightHandPinky4
												{
													OFFSET -0.000000 2.639709 0.000000
													CHANNELS 3 Zrotation Yrotation Xrotation
													End Site
													{
														OFFSET 0.000000 0.000000 0.000000
													}
												}
											}
										}
									}
									JOINT RightForeArmEnd
									{
										OFFSET 0.000000 0.000000 0.000000
										CHANNELS 3 Zrotation Yrotation Xrotation
										End Site
										{
											OFFSET 0.000000 0.000000 0.000000
										}
									}
								}
								JOINT RightArmEnd
								{
									OFFSET 0.000000 0.000000 0.000000
									CHANNELS 3 Zrotation Yrotation Xrotation
									End Site
									{
										OFFSET 0.000000 0.000000 0.000000
									}
								}
							}
						}
					}
					JOINT LeftShoulder
					{
						OFFSET 2.625389 11.175210 -0.000000
						CHANNELS 3 Zrotation Yrotation Xrotation
						JOINT LeftArm
						{
							OFFSET -0.000000 10.813635 0.000000
							CHANNELS 3 Zrotation Yrotation Xrotation
							JOINT LeftForeArm
							{
								OFFSET -0.000000 28.724781 -0.000000
								CHANNELS 3 Zrotation Yrotation Xrotation
								JOINT LeftHand
								{
									OFFSET 0.644384 25.716167 -0.328871
									CHANNELS 3 Zrotation Yrotation Xrotation
									JOINT LeftHandThumb1
									{
										OFFSET 2.867323 3.959563 2.944291
										CHANNELS 3 Zrotation Yrotation Xrotation
										JOINT LeftHandThumb2
										{
											OFFSET -0.000000 3.350399 -0.000000
											CHANNELS 3 Zrotation Yrotation Xrotation
											JOINT LeftHandThumb3
											{
												OFFSET -0.000000 3.756509 -0.000000
												CHANNELS 3 Zrotation Yrotation Xrotation
												JOINT LeftHandThumb4
												{
													OFFSET 0.000000 3.100000 0.000000
													CHANNELS 3 Zrotation Yrotation Xrotation
													End Site
													{
														OFFSET 0.000000 0.000000 0.000000
													}
												}
											}
										}
									}
									JOINT LeftHandIndex1
									{
										OFFSET 0.086752 10.030893 2.345280
										CHANNELS 3 Zrotation Yrotation Xrotation
										JOINT LeftHandIndex2
										{
											OFFSET 0.000000 4.061090 -0.000000
											CHANNELS 3 Zrotation Yrotation Xrotation
											JOINT LeftHandIndex3
											{
												OFFSET -0.000000 3.248873 0.000000
												CHANNELS 3 Zrotation Yrotation Xrotation
												JOINT LeftHandIndex4
												{
													OFFSET 0.000000 2.639709 0.000000
													CHANNELS 3 Zrotation Yrotation Xrotation
													End Site
													{
														OFFSET 0.000000 0.000000 0.000000
													}
												}
											}
										}
									}
									JOINT LeftHandMiddle1
									{
										OFFSET -0.104102 9.502952 0.006768
										CHANNELS 3 Zrotation Yrotation Xrotation
										JOINT LeftHandMiddle2
										{
											OFFSET -0.000000 4.568727 -0.000000
											CHANNELS 3 Zrotation Yrotation Xrotation
											JOINT LeftHandMiddle3
											{
												OFFSET -0.000000 3.654981 -0.000000
												CHANNELS 3 Zrotation Yrotation Xrotation
												JOINT LeftHandMiddle4
												{
													OFFSET -0.000000 2.741236 -0.000000
													CHANNELS 3 Zrotation Yrotation Xrotation
													End Site
													{
														OFFSET 0.000000 0.000000 0.000000
													}
												}
											}
										}
									}
									JOINT LeftHandRing1
									{
										OFFSET -0.086752 8.921708 -2.267442
										CHANNELS 3 Zrotation Yrotation Xrotation
										JOINT LeftHandRing2
										{
											OFFSET 0.000000 4.061090 0.000000
											CHANNELS 3 Zrotation Yrotation Xrotation
											JOINT LeftHandRing3
											{
												OFFSET 0.000000 3.654981 0.000000
												CHANNELS 3 Zrotation Yrotation Xrotation
												JOINT LeftHandRing4
												{
													OFFSET -0.000000 2.741236 -0.000000
													CHANNELS 3 Zrotation Yrotation Xrotation
													End Site
													{
														OFFSET 0.000000 0.000000 0.000000
													}
												}
											}
										}
									}
									JOINT LeftHandPinky1
									{
										OFFSET 0.173504 7.976997 -4.467199
										CHANNELS 3 Zrotation Yrotation Xrotation
										JOINT LeftHandPinky2
										{
											OFFSET 0.000000 3.350399 0.000000
											CHANNELS 3 Zrotation Yrotation Xrotation
											JOINT LeftHandPinky3
											{
												OFFSET -0.000000 2.842763 0.000000
												CHANNELS 3 Zrotation Yrotation Xrotation
												JOINT LeftHandPinky4
												{
													OFFSET -0.000000 2.639709 -0.000000
													CHANNELS 3 Zrotation Yrotation Xrotation
													End Site
													{
														OFFSET 0.000000 0.000000 0.000000
													}
												}
											}
										}
									}
									JOINT LeftForeArmEnd
									{
										OFFSET 0.000000 0.000000 0.000000
										CHANNELS 3 Zrotation Yrotation Xrotation
										End Site
										{
											OFFSET 0.000000 0.000000 0.000000
										}
									}
								}
								JOINT LeftArmEnd
								{
									OFFSET 0.000000 0.000000 0.000000
									CHANNELS 3 Zrotation Yrotation Xrotation
									End Site
									{
										OFFSET 0.000000 0.000000 0.000000
									}
								}
							}
						}
					}
				}
			}
		}
	}
	JOINT RightUpLeg
	{
		OFFSET -11.289943 0.000000 -0.000000
		CHANNELS 3 Zrotation Yrotation Xrotation
		JOINT RightLeg
		{
			OFFSET -0.000000 -38.200325 -0.000000
			CHANNELS 3 Zrotation Yrotation Xrotation
			JOINT RightFoot
			{
				OFFSET -0.000000 -39.900856 0.000000
				CHANNELS 3 Zrotation Yrotation Xrotation
				JOINT RightToeBase
				{
					OFFSET 0.000000 0.000000 15.261641
					CHANNELS 3 Zrotation Yrotation Xrotation
					JOINT RightToeBaseEnd
					{
						OFFSET -0.000000 0.000000 7.370709
						CHANNELS 3 Zrotation Yrotation Xrotation
						End Site
						{
							OFFSET 0.000000 0.000000 0.000000
						}
					}
				}
				JOINT RightLegEnd
				{
					OFFSET 0.000000 0.000000 0.000000
					CHANNELS 3 Zrotation Yrotation Xrotation
					End Site
					{
						OFFSET 0.000000 0.000000 0.000000
					}
				}
			}
			JOINT RightUpLegEnd
			{
				OFFSET 0.000000 0.000000 0.000000
				CHANNELS 3 Zrotation Yrotation Xrotation
				End Site
				{
					OFFSET 0.000000 0.000000 0.000000
				}
			}
		}
	}
	JOINT LeftUpLeg
	{
		OFFSET 11.315661 0.000000 -0.000000
		CHANNELS 3 Zrotation Yrotation Xrotation
		JOINT LeftLeg
		{
			OFFSET -0.000000 -38.200325 0.000000
			CHANNELS 3 Zrotation Yrotation Xrotation
			JOINT LeftFoot
			{
				OFFSET 0.000000 -39.900856 -0.000000
				CHANNELS 3 Zrotation Yrotation Xrotation
				JOINT LeftToeBase
				{
					OFFSET 0.000000 0.000000 15.261641
					CHANNELS 3 Zrotation Yrotation Xrotation
					JOINT LeftToeBaseEnd
					{
						OFFSET -0.000000 0.000000 7.539996
						CHANNELS 3 Zrotation Yrotation Xrotation
						End Site
						{
							OFFSET 0.000000 0.000000 0.000000
						}
					}
				}
				JOINT LeftLegEnd
				{
					OFFSET 0.000000 0.000000 0.000000
					CHANNELS 3 Zrotation Yrotation Xrotation
					End Site
					{
						OFFSET 0.000000 0.000000 0.000000
					}
				}
			}
			JOINT LeftUpLegEnd
			{
				OFFSET 0.000000 0.000000 0.000000
				CHANNELS 3 Zrotation Yrotation Xrotation
				End Site
				{
					OFFSET 0.000000 0.000000 0.000000
				}
			}
		}
	}
}
MOTION
Frames: 5
Frame Time: 0.016667
0.265475 87.646278 5.308476 -2.805981 -0.652059 -13.071927 4.300049 -0.752001 7.789752 0.796537 -0.062988 2.979482 -1.913965 0.592342 6.073681 -2.163577 0.280277 1.625255 -0.743671 0.558481 3.954144 -0.282624 0.572141 -4.028841 -0.945107 -1.172271 -18.396118 0.000000 0.000000 0.000000 92.325256 -0.433512 10.674425 63.735668 -29.439325 4.863394 -0.261042 13.207926 20.817377 17.220606 18.234552 -1.036241 12.735312 -1.985468 38.960354 0.000000 0.000000 -30.959999 0.000000 0.000000 -21.500000 0.000000 0.000000 0.000000 22.842875 0.000000 -7.799402 15.990013 0.000000 0.000000 15.990013 0.000000 0.000000 0.000000 0.000000 0.000000 21.229206 0.000000 -8.601282 14.860442 0.000000 0.000000 14.860442 0.000000 0.000000 0.000000 0.000000 0.000000 21.689322 0.000000 -7.587775 15.182523 0.000000 0.000000 15.182523 0.000000 0.000000 0.000000 0.000000 0.000000 21.060396 0.000000 -8.057158 14.742276 0.000000 0.000000 14.742276 0.000000 0.000000 0.000000 0.000000 0.000000 0.000000 0.000000 0.000000 0.000000 0.000000 0.000000 -94.618851 0.486405 5.774461 -62.118198 12.301905 -0.217349 -0.904634 -13.586806 38.923489 -13.131838 -23.465151 -6.972800 -11.835789 1.931521 39.346298 0.000000 0.000000 -28.799997 0.000000 0.000000 -20.000000 0.000000 0.000000 0.000000 -19.518488 0.000000 -6.306684 -13.662942 0.000000 0.000000 -13.662942 0.000000 0.000000 0.000000 0.000000 0.000000 -18.882164 0.000000 -8.129470 -13.217514 0.000000 0.000000 -13.217514 0.000000 0.000000 0.000000 0.000000 0.000000 -21.162146 0.000000 -9.936380 -14.813501 0.000000 0.000000 -14.813501 0.000000 0.000000 0.000000 0.000000 0.000000 -22.204298 -0.000000 -12.607777 -15.543008 0.000000 0.000000 -15.543008 0.000000 0.000000 0.000000 0.000000 0.000000 0.000000 0.000000 0.000000 0.000000 0.000000 0.000000 -0.668527 -6.303244 10.329135 -0.196333 -0.921927 12.022684 1.663168 -12.600691 15.924510 -1.080272 1.298146 -19.002277 0.000000 0.000000 0.000000 0.000000 0.000000 0.000000 0.000000 0.000000 0.000000 9.430678 -6.864474 6.469974 0.454960 1.211828 20.579599 -10.005178 20.261618 12.099840 2.051698 -1.500123 -19.898521 0.000000 0.000000 0.000000 0.000000 0.000000 0.000000 0.000000 0.000000 0.000000 
-0.513570 87.378502 5.032560 -2.381066 -0.712259 -13.468649 3.174742 -0.204024 6.912218 1.412760 -0.311825 4.762278 -2.410424 0.428536 5.619252 -1.957340 0.119350 4.467426 -0.372263 1.876706 1.984407 -0.372486 1.907287 -5.312627 -1.291540 -0.979821 -18.931356 0.000000 0.000000 0.000000 92.991966 -1.005417 10.598274 59.531357 -30.916088 8.117722 -0.058307 17.090656 25.298025 16.962336 17.417728 -1.577557 12.247768 -1.914204 39.195843 0.000044 0.000010 -30.016808 -0.000021 0.000047 -20.604153 0.000011 0.000005 -0.000027 23.799608 -0.128363 -7.234055 16.038031 0.004793 -0.143644 16.185232 0.022948 -0.169838 0.000005 0.000054 -0.000057 21.962467 -0.040887 -8.273345 15.015722 0.004893 -0.089305 15.122545 0.012835 -0.061080 0.000016 -0.000051 0.000020 22.986710 0.044223 -7.801197 15.485848 0.009822 0.080797 15.319683 -0.008470 0.065793 -0.000009 -0.000362 0.000031 22.249445 0.138639 -9.075765 15.087552 0.021973 0.203032 14.635937 -0.019395 0.182776 0.000181 0.000002 -0.000036 0.000000 0.000000 0.000000 0.000000 0.000000 0.000000 -92.972534 1.145141 6.104363 -61.959129 10.138949 -0.219830 -1.104766 -16.514759 40.748085 -13.419968 -25.276791 -5.950860 -11.306860 1.861594 39.560787 -0.000021 0.000034 -27.787527 0.000072 -0.000035 -19.312584 -0.000367 -0.000023 -0.000990 -19.806917 -0.022213 -7.273038 -13.608169 -0.015947 0.083772 -13.873858 0.004079 0.046375 0.000019 0.000100 -0.000007 -19.630171 -0.000341 -8.252075 -13.353270 -0.010873 0.054450 -13.189578 0.007061 0.051097 0.000857 -0.000053 -0.000088 -22.424574 0.059566 -8.929112 -14.918816 -0.007849 -0.112518 -14.784379 -0.016222 -0.081107 0.000638 -0.000006 0.000002 -22.581144 0.234985 -10.337168 -15.457258 -0.005264 -0.320394 -15.551071 -0.041655 -0.285725 0.000892 -0.000013 -0.000036 0.000000 0.000000 0.000000 0.000000 0.000000 0.000000 -1.402447 -6.210250 10.488957 -0.197708 -0.731588 13.753851 0.298666 -12.555891 16.984459 -0.803351 1.323498 -17.254086 0.000000 0.000000 0.000000 0.000000 0.000000 0.000000 0.000000 0.000000 0.000000 11.236137 -0.531117 5.915809 0.340142 0.883807 24.034298 -7.266137 15.321201 14.851602 1.275735 -0.515912 -20.447964 0.000000 0.000000 0.000000 0.000000 0.000000 0.000000 0.000000 0.000000 0.000000 
-1.131536 87.355476 4.863310 -2.542455 -0.699394 -13.273047 3.433954 -0.309911 6.818789 1.412611 -0.329844 4.693774 -2.473332 0.336896 5.549592 -1.997816 0.116877 4.512157 -0.072618 1.865759 1.747206 -0.318817 2.004267 -5.353029 -1.365329 -1.037620 -18.923761 0.000000 0.000000 0.000000 92.645073 -0.975694 10.739072 59.293430 -31.241789 7.814038 -0.139826 17.544649 26.657343 17.317873 18.257660 -1.582633 12.261604 -1.922605 39.186260 0.000021 0.000037 -30.036482 -0.000016 0.000039 -20.617344 0.000018 0.000005 -0.000036 23.651604 -0.138626 -6.894800 15.952511 -0.010079 -0.117671 16.065540 0.009247 -0.146142 0.000013 0.000052 -0.000040 21.778202 -0.045767 -8.069522 15.003247 -0.000619 -0.076739 15.102845 0.008593 -0.052323 0.000010 -0.000068 0.000005 22.879803 0.049454 -7.736727 15.606394 0.017138 0.064310 15.443325 -0.001730 0.054194 -0.000022 -0.000688 0.000013 22.232058 0.158314 -9.173998 15.325632 0.048842 0.146632 14.870419 0.003160 0.147614 0.000212 0.000009 -0.000032 0.000000 0.000000 0.000000 0.000000 0.000000 0.000000 -92.577095 1.115503 5.907057 -62.736240 8.682521 -0.503264 -1.157508 -17.280991 40.871967 -12.771822 -26.349543 -6.959404 -11.237548 1.866531 39.582657 -0.000014 0.000031 -27.686697 0.000057 -0.000015 -19.253004 -0.000373 -0.000009 -0.000411 -19.145262 -0.029311 -7.226968 -13.160357 -0.026054 0.061714 -13.435643 -0.008342 0.032979 0.000025 0.000292 0.000004 -18.938820 -0.002528 -8.304549 -12.952707 -0.014495 0.043150 -12.808187 0.004282 0.043842 0.000610 -0.000036 -0.000105 -21.759165 0.069483 -9.132237 -14.595123 0.000862 -0.097626 -14.483783 -0.009123 -0.068894 0.000934 0.000005 0.000009 -22.097664 0.261262 -10.588278 -15.246611 0.024540 -0.262245 -15.394969 -0.017353 -0.242389 0.001011 0.000012 -0.000058 0.000000 0.000000 0.000000 0.000000 0.000000 0.000000 -0.973545 -6.875136 10.369714 -0.192123 -0.727755 13.375814 -0.237877 -12.336755 16.880346 -0.775557 1.326286 -17.117619 0.000000 0.000000 0.000000 0.000000 0.000000 0.000000 0.000000 0.000000 0.000000 11.837736 -0.819676 5.362878 0.354709 0.903496 24.147589 -7.714568 15.396246 15.182840 1.332318 -0.516619 -20.565536 0.000000 0.000000 0.000000 0.000000 0.000000 0.000000 0.000000 0.000000 0.000000 
-1.724613 87.343277 4.681973 -2.745959 -0.571481 -13.043543 3.686666 -0.402301 6.770133 1.407345 -0.348747 4.601305 -2.535911 0.291348 5.487431 -1.995931 0.123071 4.497776 0.292110 1.741450 1.518947 -0.291534 2.017862 -5.369993 -1.403189 -1.059052 -18.841209 0.000000 0.000000 0.000000 92.283363 -0.930135 10.851561 59.145466 -31.519920 7.270955 -0.192908 17.960712 28.177481 17.172029 18.611876 -1.610080 12.307815 -1.930016 39.170300 0.000008 0.000047 -30.087044 -0.000020 0.000042 -20.659969 0.000011 0.000000 -0.000027 23.622919 -0.149486 -6.594737 15.903234 -0.022257 -0.095078 16.000950 -0.002864 -0.125641 0.000015 0.000044 -0.000029 21.750418 -0.050994 -7.807907 15.005452 -0.005407 -0.065858 15.108006 0.004902 -0.044518 -0.000003 -0.000074 0.000003 22.846170 0.054447 -7.504025 15.687808 0.025080 0.045914 15.535116 0.005016 0.041825 -0.000018 -0.000849 0.000017 22.209721 0.178472 -9.029531 15.461051 0.077930 0.085597 15.003152 0.027984 0.107155 0.000196 0.000012 -0.000032 0.000000 0.000000 0.000000 0.000000 0.000000 0.000000 -92.121086 1.047846 5.761852 -63.622520 7.521918 -1.052045 -1.185776 -17.924747 41.197414 -12.129152 -27.194925 -7.587871 -11.226734 1.869465 39.585655 -0.000023 0.000022 -27.697994 0.000032 -0.000010 -19.273020 -0.000445 -0.000007 -0.000069 -18.825483 -0.038547 -7.256461 -12.965754 -0.034027 0.044602 -13.243689 -0.017836 0.021888 0.000029 0.000474 0.000011 -18.634094 -0.005957 -8.370967 -12.804557 -0.017293 0.034618 -12.664104 0.001993 0.039010 0.000415 -0.000037 -0.000126 -21.529057 0.078296 -9.240216 -14.485371 0.008460 -0.084203 -14.406728 -0.002999 -0.058356 0.001207 -0.000008 0.000011 -22.048704 0.285387 -10.676308 -15.216562 0.050415 -0.203031 -15.397056 0.004785 -0.200373 0.001089 0.000007 -0.000066 0.000000 0.000000 0.000000 0.000000 0.000000 0.000000 -0.462440 -7.528680 10.231371 -0.180714 -0.699530 12.925057 -0.730679 -12.278858 16.930655 -0.735013 1.310047 -17.032288 0.000000 0.000000 0.000000 0.000000 0.000000 0.000000 0.000000 0.000000 0.000000 12.431915 -1.009898 4.729072 0.366250 0.920356 24.316055 -8.076977 15.471380 15.532452 1.389074 -0.515416 -20.750929 0.000000 0.000000 0.000000 0.000000 0.000000 0.000000 0.000000 0.000000 0.000000 
-2.285982 87.339653 4.489366 -2.931216 -0.336051 -12.817991 3.896510 -0.476184 6.754876 1.387350 -0.359871 4.515777 -2.570488 0.259341 5.416729 -1.983490 0.132670 4.491447 0.676593 1.521285 1.354798 -0.278825 1.946314 -5.351333 -1.411157 -1.067627 -18.746702 0.000000 0.000000 0.000000 91.901917 -0.864641 10.949932 59.013973 -31.575949 6.681193 -0.229488 18.349550 29.570028 17.054543 18.814001 -1.613364 12.364377 -1.939184 39.146568 -0.000002 0.000052 -30.163223 -0.000019 0.000043 -20.718081 0.000007 -0.000002 -0.000022 23.660591 -0.157255 -6.367749 15.856413 -0.037672 -0.066177 15.947845 -0.018474 -0.100870 0.000014 0.000039 -0.000022 21.823072 -0.055553 -7.575825 14.990098 -0.011765 -0.052778 15.097294 0.000011 -0.034510 -0.000010 -0.000075 0.000002 22.857765 0.058651 -7.256615 15.709885 0.037036 0.021225 15.571115 0.014128 0.024963 -0.000015 -0.000910 0.000019 22.197092 0.195072 -8.803840 15.503489 0.117602 0.002502 15.051311 0.062216 0.047181 0.000171 0.000013 -0.000029 0.000000 0.000000 0.000000 0.000000 0.000000 0.000000 -91.687042 0.964406 5.641920 -64.323570 6.737098 -1.599986 -1.192418 -18.418234 41.515079 -11.615060 -27.433859 -8.008631 -11.252790 1.872377 39.574600 -0.000026 0.000018 -27.779709 0.000012 -0.000009 -19.333059 -0.000478 -0.000006 0.000152 -18.711914 -0.046795 -7.324743 -12.916015 -0.041081 0.034345 -13.196444 -0.026039 0.015969 0.000031 0.000622 0.000014 -18.547222 -0.009783 -8.429852 -12.785587 -0.019876 0.029280 -12.638423 -0.000243 0.036607 0.000300 -0.000036 -0.000145 -21.508846 0.085042 -9.292941 -14.475897 0.015707 -0.073463 -14.422485 0.002559 -0.050592 0.001427 -0.000015 0.000011 -22.158327 0.303387 -10.676408 -15.247551 0.073998 -0.150622 -15.446245 0.025870 -0.165630 0.001123 0.000003 -0.000070 0.000000 0.000000 0.000000 0.000000 0.000000 0.000000 0.047748 -8.128716 10.112550 -0.168437 -0.665456 12.531233 -1.164797 -12.373252 17.027306 -0.692508 1.284992 -17.010111 0.000000 0.000000 0.000000 0.000000 0.000000 0.000000 0.000000 0.000000 0.000000 12.949750 -1.129755 4.073624 0.374730 0.935253 24.507618 -8.337708 15.464725 15.873002 1.440178 -0.509791 -20.950319 0.000000 0.000000 0.000000 0.000000 0.000000 0.000000 0.000000 0.000000 0.000000 
